<svg width="288" height="448" viewBox="0 0 288 448" fill="none" xmlns="http://www.w3.org/2000/svg">
<path d="M0.0999985 206.099L0 219.699C0.1 285.299 46 340.299 108.1 355.899C109.4 355.999 110.7 356.399 111.9 356.799C117.8 358.799 122 363.699 124 369.599V428.299C124 439.199 132.9 447.999 144 447.999H144.1C155.2 447.999 164 439.199 164 428.299V369.499C166 363.599 170.1 358.799 176 356.799C177.2 356.399 178.5 355.999 179.9 355.899C242 340.299 288 285.299 288 219.699V206.099C288 195.699 279.1 187.199 268.5 187.199C257.9 187.199 249 195.599 249 206.099V219.699C249 248.199 237.5 273.799 218.4 292.499C199.2 311.099 173.1 322.699 143.9 322.699C114.7 322.699 88.8 311.199 69.7 292.499C50.6 273.799 39 248.099 39 219.699V206.099C39 195.699 30.2 187.199 19.5 187.199C8.9 187.199 0.0999985 195.699 0.0999985 206.099Z" fill="#821F8F"/>
<path d="M67 75.7V219.5C67 261.3 101.7 295.2 144.5 295.2C187.3 295.2 222 261.3 222 219.5V75.7C222 33.9 187.3 0 144.5 0C101.7 0 67 33.9 67 75.7Z" fill="#821F8F"/>
</svg>
