<svg width="609" height="609" viewBox="0 0 609 609" fill="none" xmlns="http://www.w3.org/2000/svg">
<rect width="609" height="609" rx="40" fill="#030504"/>
<path d="M349.218 252.51L337.426 260.304C330.231 249.645 320.838 241.251 309.246 235.122C297.788 228.86 285.33 225.729 271.873 225.729C250.021 225.729 231.368 233.457 215.912 248.912C200.457 264.368 192.729 283.021 192.729 304.873C192.729 326.724 200.457 345.377 215.912 360.833C231.368 376.289 250.021 384.017 271.873 384.017C285.33 384.017 297.788 380.886 309.246 374.623C320.838 368.361 330.231 359.9 337.426 349.241L349.018 357.635C340.491 370.16 329.432 380.086 315.842 387.414C302.251 394.742 287.595 398.406 271.873 398.406C259.215 398.406 247.09 395.942 235.498 391.012C224.04 386.082 214.114 379.42 205.72 371.026C197.325 362.632 190.663 352.705 185.734 341.247C180.804 329.655 178.339 317.53 178.339 304.873C178.339 292.215 180.804 280.157 185.734 268.698C190.663 257.106 197.325 247.114 205.72 238.72C214.114 230.325 224.04 223.663 235.498 218.734C247.09 213.804 259.215 211.339 271.873 211.339C287.728 211.339 302.451 215.07 316.041 222.531C329.632 229.859 340.691 239.852 349.218 252.51ZM373.001 236.121L361.01 243.916C351.15 229.526 338.359 218.134 322.637 209.74C307.048 201.213 290.126 196.949 271.873 196.949C252.287 196.949 234.233 201.812 217.711 211.539C201.189 221.132 188.065 234.189 178.339 250.711C168.746 267.233 163.949 285.287 163.949 304.873C163.949 324.459 168.746 342.513 178.339 359.034C188.065 375.556 201.189 388.68 217.711 398.406C234.233 408 252.287 412.796 271.873 412.796C290.126 412.796 307.114 408.533 322.837 400.005C338.559 391.478 351.35 379.953 361.209 365.43L373.001 373.624C361.809 390.146 347.286 403.203 329.432 412.796C311.711 422.39 292.525 427.186 271.873 427.186C249.755 427.186 229.303 421.723 210.516 410.798C191.729 399.872 176.873 385.016 165.948 366.229C155.022 347.443 149.559 326.99 149.559 304.873C149.559 282.755 155.022 262.303 165.948 243.516C176.873 224.729 191.729 209.873 210.516 198.948C229.303 188.022 249.755 182.559 271.873 182.559C292.525 182.559 311.711 187.356 329.432 196.949C347.286 206.542 361.809 219.6 373.001 236.121ZM396.984 220.133L384.993 227.927C372.468 209.54 356.213 195.017 336.227 184.358C316.375 173.566 294.923 168.169 271.873 168.169C253.352 168.169 235.632 171.767 218.71 178.962C201.789 186.157 187.199 195.883 174.941 208.141C162.817 220.266 153.157 234.789 145.962 251.71C138.767 268.632 135.169 286.352 135.169 304.873C135.169 323.393 138.767 341.114 145.962 358.035C153.157 374.956 162.817 389.546 174.941 401.804C187.199 413.929 201.789 423.589 218.71 430.784C235.632 437.978 253.352 441.576 271.873 441.576C295.056 441.576 316.574 436.18 336.427 425.387C356.28 414.595 372.468 400.005 384.993 381.618L396.584 390.212C382.728 410.465 364.807 426.52 342.822 438.378C320.971 450.103 297.321 455.966 271.873 455.966C244.559 455.966 219.31 449.237 196.126 435.78C172.943 422.19 154.556 403.803 140.965 380.619C127.508 357.435 120.78 332.187 120.78 304.873C120.78 277.559 127.508 252.31 140.965 229.126C154.556 205.943 172.943 187.622 196.126 174.165C219.31 160.575 244.559 153.78 271.873 153.78C297.455 153.78 321.238 159.775 343.222 171.767C365.207 183.625 383.127 199.747 396.984 220.133ZM420.567 203.744L408.576 211.539C393.387 189.288 373.734 171.7 349.618 158.776C325.635 145.852 299.72 139.39 271.873 139.39C249.489 139.39 228.037 143.787 207.518 152.58C187.133 161.241 169.545 172.966 154.756 187.756C139.966 202.545 128.174 220.199 119.381 240.718C110.72 261.104 106.39 282.489 106.39 304.873C106.39 327.257 110.72 348.708 119.381 369.227C128.174 389.613 139.966 407.2 154.756 421.99C169.545 436.779 187.133 448.571 207.518 457.365C228.037 466.025 249.489 470.356 271.873 470.356C299.72 470.356 325.701 463.827 349.818 450.769C373.934 437.712 393.587 420.058 408.776 397.807L420.368 406.601C403.846 430.584 382.528 449.637 356.413 463.76C330.298 477.75 302.118 484.745 271.873 484.745C247.49 484.745 224.173 479.949 201.922 470.356C179.805 460.896 160.685 448.171 144.563 432.183C128.574 416.061 115.783 396.941 106.19 374.823C96.73 352.572 92 329.255 92 304.873C92 280.49 96.73 257.24 106.19 235.122C115.783 212.871 128.574 193.751 144.563 177.763C160.685 161.641 179.805 148.85 201.922 139.39C224.173 129.797 247.49 125 271.873 125C302.251 125 330.498 132.062 356.613 146.185C382.728 160.308 404.046 179.495 420.567 203.744Z" fill="white"/>
<path d="M445.949 412.796V398.406H517.899V412.796H445.949ZM445.949 441.576V427.186H517.899V441.576H445.949ZM445.949 470.356V455.966H517.899V470.356H445.949Z" fill="#821F8F"/>
</svg>
