<svg width="427" height="361" viewBox="0 0 427 361" fill="none" xmlns="http://www.w3.org/2000/svg">
<path d="M257.627 128.459L245.835 136.253C238.64 125.594 229.247 117.2 217.655 111.071C206.197 104.809 193.739 101.678 180.282 101.678C158.43 101.678 139.777 109.406 124.321 124.861C108.865 140.317 101.138 158.971 101.138 180.822C101.138 202.673 108.865 221.326 124.321 236.782C139.777 252.238 158.43 259.966 180.282 259.966C193.739 259.966 206.197 256.835 217.655 250.572C229.247 244.31 238.64 235.85 245.835 225.19L257.427 233.584C248.9 246.109 237.841 256.035 224.25 263.363C210.66 270.692 196.004 274.356 180.282 274.356C167.624 274.356 155.499 271.891 143.907 266.961C132.449 262.031 122.522 255.369 114.128 246.975C105.734 238.581 99.0724 228.655 94.1425 217.196C89.2127 205.604 86.7478 193.48 86.7478 180.822C86.7478 168.164 89.2127 156.106 94.1425 144.647C99.0724 133.056 105.734 123.063 114.128 114.669C122.522 106.275 132.449 99.6126 143.907 94.6828C155.499 89.753 167.624 87.288 180.282 87.288C196.137 87.288 210.86 91.0187 224.45 98.4801C238.041 105.808 249.1 115.801 257.627 128.459ZM281.41 112.07L269.418 119.865C259.559 105.475 246.768 94.0832 231.046 85.6892C215.457 77.1619 198.535 72.8982 180.282 72.8982C160.695 72.8982 142.642 77.7614 126.12 87.4879C109.598 97.0811 96.4742 110.139 86.7478 126.66C77.1546 143.182 72.3579 161.236 72.3579 180.822C72.3579 200.408 77.1546 218.462 86.7478 234.983C96.4742 251.505 109.598 264.629 126.12 274.356C142.642 283.949 160.695 288.745 180.282 288.745C198.535 288.745 215.523 284.482 231.245 275.954C246.968 267.427 259.759 255.902 269.618 241.379L281.41 249.573C270.218 266.095 255.695 279.152 237.841 288.745C220.12 298.339 200.934 303.135 180.282 303.135C158.164 303.135 137.712 297.672 118.925 286.747C100.138 275.821 85.2821 260.965 74.3565 242.178C63.4309 223.392 57.9681 202.94 57.9681 180.822C57.9681 158.704 63.4309 138.252 74.3565 119.465C85.2821 100.679 100.138 85.8224 118.925 74.8968C137.712 63.9712 158.164 58.5084 180.282 58.5084C200.934 58.5084 220.12 63.305 237.841 72.8982C255.695 82.4914 270.218 95.5489 281.41 112.07ZM305.393 96.0818L293.401 103.876C280.877 85.4893 264.622 70.9663 244.636 60.3071C224.783 49.5148 203.332 44.1186 180.282 44.1186C161.761 44.1186 144.041 47.716 127.119 54.9109C110.198 62.1059 95.6082 71.8323 83.3502 84.0903C71.2254 96.215 61.5656 110.738 54.3707 127.659C47.1758 144.581 43.5783 162.302 43.5783 180.822C43.5783 199.342 47.1758 217.063 54.3707 233.984C61.5656 250.906 71.2254 265.495 83.3502 277.753C95.6082 289.878 110.198 299.538 127.119 306.733C144.041 313.928 161.761 317.525 180.282 317.525C203.465 317.525 224.983 312.129 244.836 301.337C264.688 290.544 280.877 275.954 293.401 257.567L304.993 266.161C291.136 286.414 273.216 302.469 251.231 314.327C229.38 326.052 205.73 331.915 180.282 331.915C152.968 331.915 127.719 325.186 104.535 311.729C81.3516 298.139 62.9646 279.752 49.3742 256.568C35.9171 233.385 29.1885 208.136 29.1885 180.822C29.1885 153.508 35.9171 128.259 49.3742 105.075C62.9646 81.8919 81.3516 63.5715 104.535 50.1143C127.719 36.524 152.968 29.7288 180.282 29.7288C205.863 29.7288 229.647 35.7245 251.631 47.716C273.615 59.5743 291.536 75.6962 305.393 96.0818ZM328.976 79.6934L316.985 87.4879C301.796 65.237 282.143 47.6494 258.027 34.7252C234.043 21.8011 208.129 15.339 180.282 15.339C157.897 15.339 136.446 19.7358 115.927 28.5296C95.5415 37.1902 77.954 48.9152 63.1645 63.7047C48.3749 78.4943 36.5833 96.1484 27.7895 116.667C19.129 137.053 14.7987 158.438 14.7987 180.822C14.7987 203.206 19.129 224.657 27.7895 245.176C36.5833 265.562 48.3749 283.149 63.1645 297.939C77.954 312.728 95.5415 324.52 115.927 333.314C136.446 341.974 157.897 346.305 180.282 346.305C208.129 346.305 234.11 339.776 258.226 326.719C282.343 313.661 301.995 296.007 317.185 273.756L328.776 282.55C312.255 306.533 290.937 325.586 264.822 339.709C238.707 353.699 210.527 360.695 180.282 360.695C155.899 360.695 132.582 355.898 110.331 346.305C88.2134 336.845 69.0936 324.12 52.9717 308.132C36.983 292.01 24.192 272.89 14.5988 250.772C5.13886 228.521 0.408875 205.205 0.408875 180.822C0.408875 156.439 5.13886 133.189 14.5988 111.071C24.192 88.8203 36.983 69.7005 52.9717 53.7118C69.0936 37.5899 88.2134 24.7989 110.331 15.339C132.582 5.74575 155.899 0.949145 180.282 0.949145C210.66 0.949145 238.907 8.01081 265.022 22.1341C291.136 36.2575 312.455 55.4439 328.976 79.6934Z" fill="white"/>
<path d="M354.358 288.745V274.356H426.307V288.745H354.358ZM354.358 317.525V303.135H426.307V317.525H354.358ZM354.358 346.305V331.915H426.307V346.305H354.358Z" fill="#821F8F"/>
</svg>
